<svg width="64" height="64" viewBox="0 0 64 64" fill="none" xmlns="http://www.w3.org/2000/svg">
<g clip-path="url(#clip0_125_4)">
<rect width="64" height="64" rx="12" fill="#181818"/>
<path d="M43.7685 31V27.6761L51.5348 20.4851C52.1953 19.8459 52.7493 19.2706 53.1967 18.7592C53.6513 18.2479 53.9957 17.7472 54.2301 17.2571C54.4645 16.7599 54.5817 16.2237 54.5817 15.6484C54.5817 15.0092 54.4361 14.4588 54.1449 13.9972C53.8537 13.5284 53.456 13.1697 52.9517 12.9212C52.4474 12.6655 51.8757 12.5376 51.2365 12.5376C50.5689 12.5376 49.9865 12.6726 49.4893 12.9425C48.9922 13.2124 48.6087 13.5994 48.3388 14.1037C48.0689 14.608 47.9339 15.2081 47.9339 15.9041H43.5554C43.5554 14.4766 43.8786 13.2372 44.5249 12.1861C45.1712 11.1349 46.0767 10.3217 47.2415 9.74645C48.4063 9.17116 49.7486 8.88352 51.2685 8.88352C52.831 8.88352 54.1911 9.16051 55.3487 9.71449C56.5135 10.2614 57.419 11.0213 58.0653 11.9943C58.7116 12.9673 59.0348 14.0824 59.0348 15.3395C59.0348 16.1634 58.8714 16.9766 58.5447 17.7791C58.2251 18.5817 57.6534 19.473 56.8295 20.4531C56.0057 21.4261 54.8445 22.5945 53.3459 23.9581L50.1605 27.0795V27.2287H59.3224V31H43.7685Z" fill="#FF7A00"/>
<path d="M44.8963 56V34.1818H59.3423V37.9851H49.5092V43.1839H58.3835V46.9872H49.5092V56H44.8963Z" fill="white"/>
<path d="M5.17187 57V9H24.3906C27.9219 9 30.8672 9.52344 33.2266 10.5703C35.5859 11.6172 37.3594 13.0703 38.5469 14.9297C39.7344 16.7734 40.3281 18.8984 40.3281 21.3047C40.3281 23.1797 39.9531 24.8281 39.2031 26.25C38.4531 27.6562 37.4219 28.8125 36.1094 29.7187C34.8125 30.6094 33.3281 31.2422 31.6563 31.6172V32.0859C33.4844 32.1641 35.1953 32.6797 36.7891 33.6328C38.3984 34.5859 39.7031 35.9219 40.7031 37.6406C41.7031 39.3437 42.2031 41.375 42.2031 43.7344C42.2031 46.2812 41.5703 48.5547 40.3047 50.5547C39.0547 52.5391 37.2031 54.1094 34.75 55.2656C32.2969 56.4219 29.2734 57 25.6797 57H5.17187ZM15.3203 48.7031H23.5938C26.4219 48.7031 28.4844 48.1641 29.7813 47.0859C31.0781 45.9922 31.7266 44.5391 31.7266 42.7266C31.7266 41.3984 31.4063 40.2266 30.7656 39.2109C30.125 38.1953 29.2109 37.3984 28.0234 36.8203C26.8516 36.2422 25.4531 35.9531 23.8281 35.9531H15.3203V48.7031ZM15.3203 29.0859H22.8437C24.2344 29.0859 25.4688 28.8437 26.5469 28.3594C27.6406 27.8594 28.5 27.1562 29.125 26.25C29.7656 25.3437 30.0859 24.2578 30.0859 22.9922C30.0859 21.2578 29.4688 19.8594 28.2344 18.7969C27.0156 17.7344 25.2813 17.2031 23.0313 17.2031H15.3203V29.0859Z" fill="white"/>
</g>
<defs>
<clipPath id="clip0_125_4">
<rect width="64" height="64" fill="white"/>
</clipPath>
</defs>
</svg>
